<svg width="54" height="50" viewBox="0 0 54 50" fill="none" xmlns="http://www.w3.org/2000/svg">
<path fill-rule="evenodd" clip-rule="evenodd" d="M27.0001 5C23.1271 5 19.6998 7.50773 18.5279 11.1992L16.5277 17.5H18.2499H35.7501H37.4723L35.4721 11.1992C34.3001 7.50773 30.8728 5 27.0001 5ZM42.7181 17.5L40.2376 9.68625C38.4066 3.91835 33.0516 0 27.0001 0C20.9484 0 15.5934 3.91835 13.7623 9.68625L11.2818 17.5H5.36978C2.01468 17.5 -0.388342 20.739 0.584658 23.95L3.39526 33.225L6.86496 44.675C7.82326 47.8375 10.7383 50 14.0427 50H21.9999H32.0001H39.9573C43.2616 50 46.1766 47.8375 47.1348 44.675L50.6046 33.225L53.4153 23.95C54.3883 20.739 51.9853 17.5 48.6301 17.5H42.7181ZM13.1111 22.5H5.36978L7.64251 30H17.0904L16.0677 22.5H13.1111ZM21.114 22.5L22.1368 30H31.8631L32.8858 22.5H21.114ZM37.9321 22.5L36.9096 30H46.3573L48.6301 22.5H40.8888H37.9321ZM44.8423 35H36.2276L34.8641 45H39.9573C41.0588 45 42.0303 44.2793 42.3498 43.225L44.8423 35ZM29.8178 45L31.1813 35H22.8186L24.1821 45H29.8178ZM19.1359 45L17.7723 35H9.15766L11.6501 43.225C11.9695 44.2793 12.9412 45 14.0427 45H19.1359Z" fill="black"/>
</svg>
