<svg width="58" height="50" viewBox="0 0 58 50" fill="none" xmlns="http://www.w3.org/2000/svg">
<path d="M37.2656 0.773437L28.5 5.22656L19.2656 0.492188L0.46875 11.6953L9.1875 16.7109V37.4766L28.5 27.2109L47.5313 37.4766V16.7109L56.7188 11.4141L37.2656 0.773437Z" fill="white"/>
<path d="M9.1875 37.9453C9.09375 37.9453 9 37.9453 8.95313 37.8984C8.8125 37.8047 8.71875 37.6641 8.71875 37.4766V16.9453L0.234375 12.0703C0.09375 12.0234 0 11.8359 0 11.6953C0 11.5547 0.09375 11.3672 0.234375 11.2734L19.0312 0.0703125C19.1719 -0.0234375 19.3594 -0.0234375 19.5 0.0703125L28.5469 4.71094L37.0312 0.351563C37.1719 0.257813 37.3125 0.304688 37.4531 0.351563L56.9063 10.9922C57.0469 11.0859 57.1406 11.2266 57.1406 11.4141C57.1406 11.6016 57.0469 11.7422 56.9063 11.8359L47.9531 16.9922V37.5234C47.9531 37.7109 47.8594 37.8516 47.7188 37.9453C47.5781 38.0391 47.3906 38.0391 47.25 37.9453L28.5 27.7266L9.42188 37.8984C9.32813 37.9453 9.28125 37.9453 9.1875 37.9453ZM1.40625 11.6953L9.42188 16.2891C9.5625 16.3828 9.65625 16.5234 9.65625 16.7109V36.7266L28.2656 26.7891C28.4062 26.6953 28.5937 26.6953 28.6875 26.7891L47.0156 36.7266V16.7109C47.0156 16.5234 47.1094 16.3828 47.25 16.2891L55.7812 11.4141L37.2188 1.33594L29.0625 5.46094C29.0625 5.50781 29.0156 5.50781 29.0156 5.55469C28.875 5.78906 28.5938 5.83594 28.3594 5.69531L28.2656 5.60156H28.2188L19.2656 1.00781L1.40625 11.6953Z" fill="#6A576D"/>
<path d="M28.5 5.22656L47.5313 16.7109V37.4766L28.5 27.2109V5.22656Z" fill="#121519"/>
<path d="M28.5 5.22656L9.1875 16.7109V37.4766L28.5 27.2109V5.22656Z" fill="#121519"/>
<path d="M47.5313 37.9453C47.4375 37.9453 47.3906 37.9453 47.2969 37.8984L28.2656 27.5859C28.125 27.4922 28.0312 27.3516 28.0312 27.1641V5.22656C28.0312 5.03906 28.125 4.89844 28.2656 4.80469C28.4063 4.71094 28.5938 4.71094 28.7344 4.80469L47.7656 16.2891C47.9063 16.3828 48 16.5234 48 16.7109V37.5234C48 37.7109 47.9063 37.8516 47.7656 37.9453H47.5313ZM28.9688 26.9297L47.0625 36.7266V16.9453L28.9688 6.07031V26.9297Z" fill="#6A576D"/>
<path d="M9.1875 37.9453C9.09375 37.9453 9 37.9453 8.95312 37.8984C8.8125 37.8047 8.71875 37.6641 8.71875 37.4766V16.7109C8.71875 16.5234 8.8125 16.3828 8.95312 16.2891L28.2656 4.80469C28.4062 4.71094 28.5938 4.71094 28.7344 4.80469C28.875 4.89844 28.9688 5.03906 28.9688 5.22656V27.2109C28.9688 27.3984 28.875 27.5391 28.7344 27.6328L9.42188 37.9453H9.1875ZM9.65625 16.9453V36.7266L28.0312 26.9297V6.07031L9.65625 16.9453Z" fill="#6A576D"/>
<path d="M28.5 26.9766L20.3906 23.7891L9.1875 16.6641V37.4766L28.5 48.9609L47.5312 37.4766V16.6641L38.9531 23.0391L28.5 26.9766Z" fill="#D6AB7F"/>
<path d="M28.5 49.4297C28.4062 49.4297 28.3125 49.4297 28.2656 49.3828L8.95313 37.8984C8.8125 37.8047 8.71875 37.6641 8.71875 37.4766V16.6641C8.71875 16.4766 8.8125 16.3359 8.95313 16.2422C9.09375 16.1484 9.28125 16.1484 9.42188 16.2422L20.625 23.3672L28.5469 26.5078L38.7656 22.6172L47.25 16.2891C47.3906 16.1953 47.5781 16.1484 47.7188 16.2422C47.8594 16.3359 47.9531 16.4766 47.9531 16.6641V37.4766C47.9531 37.6641 47.8594 37.8047 47.7188 37.8984L28.6875 49.3828C28.6875 49.3828 28.5937 49.4297 28.5 49.4297ZM9.65625 37.2422L28.5 48.4453L47.0625 37.2422V17.6016L39.2344 23.4141C39.1875 23.4609 39.1406 23.4609 39.1406 23.4609L28.6875 27.4453C28.5938 27.4922 28.4531 27.4922 28.3594 27.4453L20.25 24.2578C20.2031 24.2578 20.2031 24.2109 20.1563 24.2109L9.65625 17.5547V37.2422Z" fill="#6A576D"/>
<path d="M28.5 48.9609L47.5313 37.4766V16.6641L37.5937 23.7422L28.5 26.9766V48.9609Z" fill="#121519"/>
<path d="M28.5 49.4292C28.4062 49.4292 28.3594 49.4292 28.2656 49.3824C28.125 49.2886 28.0312 49.148 28.0312 48.9605V26.9761C28.0312 26.7886 28.1719 26.6011 28.3594 26.5542L37.4063 23.3199L47.25 16.2886C47.3906 16.1949 47.5781 16.1949 47.7188 16.2417C47.8594 16.3355 47.9531 16.4761 47.9531 16.6636V37.4761C47.9531 37.6636 47.8594 37.8042 47.7188 37.898L28.6875 49.3824C28.6875 49.3824 28.5938 49.4292 28.5 49.4292ZM28.9688 27.3042V48.1167L47.0625 37.2417V17.6011L37.875 24.1167C37.8281 24.1636 37.7812 24.1636 37.7812 24.1636L28.9688 27.3042Z" fill="#6A576D"/>
<path d="M13.4062 30.1172L28.5 38.6484V26.9766L19.875 24.0703L9.1875 16.6641L13.4062 30.1172Z" fill="#121519"/>
<path d="M0.46875 21.6797L9.1875 16.6641L28.5 26.9766L19.2188 32.2734L0.46875 21.6797Z" fill="white"/>
<path d="M37.2188 35.3672L47.5313 30.0703V16.7109L39.1406 22.8984L28.6406 26.8828L28.5 26.9766L37.2188 35.3672Z" fill="#121519"/>
<path d="M28.5 26.9766L37.2188 31.9922L56.7188 21.9609L47.5313 16.7109L28.5 26.9766Z" fill="white"/>
<path d="M19.2188 32.7422C19.125 32.7422 19.0781 32.7422 18.9844 32.6953L0.234375 22.1016C0.09375 22.0078 0 21.8672 0 21.6797C0 21.4922 0.09375 21.3516 0.234375 21.2578L8.95313 16.2891C9.09375 16.1953 9.28125 16.1953 9.42188 16.2891L28.7344 26.6016C28.875 26.6953 28.9688 26.8359 28.9688 27.0234C28.9688 27.2109 28.875 27.3516 28.7344 27.4453L19.4531 32.6953C19.4062 32.7422 19.3125 32.7422 19.2188 32.7422ZM1.40625 21.6797L19.2188 31.7578L27.5156 27.0234L9.1875 17.2266L1.40625 21.6797Z" fill="#6A576D"/>
<path d="M37.2188 32.4609C37.125 32.4609 37.0781 32.4609 36.9844 32.4141L28.2656 27.3984C28.125 27.3047 28.0312 27.1641 28.0312 26.9766C28.0312 26.7891 28.125 26.6484 28.2656 26.5547L47.2969 16.2422C47.4375 16.1484 47.625 16.1484 47.7656 16.2422L56.9531 21.5391C57.0938 21.6328 57.1875 21.7734 57.1875 21.9609C57.1875 22.1484 57.0938 22.2891 56.9531 22.3828L37.4531 32.4141C37.3594 32.4609 37.3125 32.4609 37.2188 32.4609ZM29.4844 26.9766L37.2656 31.4297L55.7813 21.9141L47.4844 17.2266L29.4844 26.9766Z" fill="#6A576D"/>
</svg>
