<svg width="50" height="54" viewBox="0 0 50 54" fill="none" xmlns="http://www.w3.org/2000/svg">
<path fill-rule="evenodd" clip-rule="evenodd" d="M25.6991 5.28953C25.2426 5.15658 24.7576 5.15658 24.3008 5.28953C24.1696 5.32781 23.9386 5.42356 23.4473 5.79548C22.9308 6.18663 22.2983 6.74643 21.3128 7.62246L8.21365 19.2661C6.60778 20.6935 6.15253 21.1241 5.83603 21.6001C5.53158 22.0581 5.30478 22.5631 5.16475 23.0948C5.01918 23.6478 4.99993 24.2738 4.99993 26.4226V38.9251C4.99993 41.1026 5.00195 42.5828 5.0969 43.7263C5.18938 44.8401 5.35693 45.4086 5.56288 45.8048C6.03725 46.7181 6.78185 47.4628 7.69508 47.9371C8.0915 48.1431 8.65998 48.3106 9.77358 48.4031C10.9171 48.4981 12.3974 48.5001 14.5749 48.5001H14.9999V41.0001C14.9999 35.4773 19.4771 31.0001 25.0001 31.0001C30.5228 31.0001 35.0001 35.4773 35.0001 41.0001V48.5001H35.4251C37.6026 48.5001 39.0828 48.4981 40.2263 48.4031C41.3398 48.3106 41.9083 48.1431 42.3048 47.9371C43.2181 47.4628 43.9625 46.7181 44.437 45.8048C44.643 45.4086 44.8106 44.8401 44.9031 43.7263C44.9978 42.5828 45.0001 41.1026 45.0001 38.9251V26.4226C45.0001 24.2738 44.9808 23.6478 44.8351 23.0948C44.6951 22.5631 44.4683 22.0581 44.1638 21.6001C43.8473 21.1241 43.3921 20.6935 41.7863 19.2661L28.6871 7.62246C27.7016 6.74643 27.0691 6.18663 26.5526 5.79548C26.0613 5.42356 25.8303 5.32781 25.6991 5.28953ZM22.9028 0.488957C24.2726 0.0901068 25.7273 0.0901068 27.0971 0.488957C28.0473 0.765732 28.8353 1.25243 29.5706 1.80913C30.2631 2.33343 31.0431 3.02666 31.9411 3.82493L45.1081 15.529C45.1791 15.592 45.2488 15.6542 45.318 15.7155C46.6223 16.8736 47.6073 17.7484 48.3278 18.832C48.9366 19.748 49.3903 20.7581 49.6703 21.8218C50.0015 23.0801 50.0011 24.3976 50.0001 26.1416C50.0001 26.2341 50.0001 26.3276 50.0001 26.4226V39.0301C50.0001 41.0763 50.0001 42.7653 49.8858 44.1403C49.7673 45.5686 49.5126 46.8808 48.8741 48.1098C47.9253 49.9363 46.4361 51.4253 44.6098 52.3741C43.3806 53.0126 42.0686 53.2673 40.6401 53.3858C39.2651 53.5001 37.5763 53.5001 35.5298 53.5001H34.5126C34.4931 53.5001 34.4736 53.5001 34.4536 53.5001C34.1508 53.5001 33.7893 53.5003 33.4708 53.4738C33.1016 53.4433 32.5731 53.3646 32.0213 53.0778C31.3363 52.7221 30.7778 52.1636 30.4221 51.4788C30.1356 50.9268 30.0568 50.3983 30.0261 50.0291C29.9996 49.7108 29.9998 49.3491 29.9998 49.0463L30.0001 41.0001C30.0001 38.2386 27.7613 36.0001 25.0001 36.0001C22.2386 36.0001 19.9999 38.2386 19.9999 41.0001L20 49.0463C20.0001 49.3491 20.0003 49.7108 19.9738 50.0291C19.9431 50.3983 19.8644 50.9268 19.5777 51.4788C19.222 52.1636 18.6635 52.7221 17.9786 53.0778C17.4268 53.3646 16.8983 53.4433 16.5291 53.4738C16.2106 53.5003 15.849 53.5001 15.5462 53.5001C15.5264 53.5001 15.5068 53.5001 15.4874 53.5001H14.47C12.4237 53.5001 10.7348 53.5001 9.35975 53.3858C7.93138 53.2673 6.61928 53.0126 5.39018 52.3741C3.56375 51.4253 2.07455 49.9363 1.1258 48.1098C0.487351 46.8808 0.232676 45.5686 0.114051 44.1403C-0.000123693 42.7653 -9.84082e-05 41.0763 -7.34082e-05 39.0301V26.4226C-7.34082e-05 26.3276 -0.00012351 26.2341 -0.00014851 26.1416C-0.00107351 24.3976 -0.00174871 23.0801 0.329551 21.8218C0.609626 20.7581 1.06325 19.748 1.67215 18.832C2.39245 17.7484 3.37768 16.8736 4.68185 15.7156C4.75095 15.6542 4.82093 15.592 4.89183 15.529L18.0589 3.82496C18.9569 3.02666 19.7367 2.33343 20.4293 1.80913C21.1646 1.25243 21.9526 0.765732 22.9028 0.488957Z" fill="#0F1729"/>
</svg>
